<?xml version="1.0" encoding="UTF-8"?>
<!DOCTYPE svg PUBLIC "-//W3C//DTD SVG 1.1//EN" "http://www.w3.org/Graphics/SVG/1.1/DTD/svg11.dtd">
<svg xmlns="http://www.w3.org/2000/svg" xml:space="preserve" width="100px" height="40px" version="1.1" style="shape-rendering:geometricPrecision; text-rendering:geometricPrecision; image-rendering:optimizeQuality; fill-rule:evenodd; clip-rule:evenodd"
viewBox="0 0 283 113"
 xmlns:xlink="http://www.w3.org/1999/xlink">
 <defs>
  <style type="text/css">
   <![CDATA[
    .str0 {stroke:#00BBFF;stroke-width:0.566}
    .fil0 {fill:#00BBFF}
    .fil2 {fill:#00BBFF;fill-rule:nonzero}
    .fil1 {fill:#FF6600;fill-rule:nonzero}
   ]]>
  </style>
 </defs>
 <g id="Image">
  <polygon class="fil0 str0" points="74,68 8,23 14,79 38,74 20,42 47,72 "/>
  <polygon class="fil0 str0" points="28,83 39,92 39,80 "/>
  <path class="fil1" d="M88 38l-7 0 0 -7 7 0 0 7zm0 43l-7 0 0 -36 7 0 0 36z"/>
  <path id="1" class="fil1" d="M140 81l-19 0c-7,0 -13,-2 -16,-5 -3,-4 -4,-9 -4,-17l0 -28 39 0 0 7 -32 0 0 13 30 0 0 7 -30 0 0 1c0,6 1,9 3,11 2,2 5,3 10,3l19 0 0 8z"/>
  <path id="2" class="fil2" d="M183 81l-19 0c-4,0 -7,-2 -10,-5 -4,-3 -6,-8 -6,-13 0,-6 2,-10 6,-14 2,-2 6,-4 10,-4l11 0 0 -14 8 0 0 50zm-8 -8l0 -21 -10 0c-3,0 -5,1 -7,2 -2,2 -3,5 -3,9 0,3 1,6 3,8 2,2 4,2 7,2l10 0z"/>
  <path id="3" class="fil2" d="M229 63c0,5 -2,10 -6,13 -4,4 -8,6 -13,6 -6,0 -10,-2 -14,-6 -4,-3 -5,-8 -5,-13 0,-6 1,-10 5,-14 4,-4 8,-6 14,-6 5,0 9,2 13,6 4,4 6,8 6,14zm-7 0c0,-4 -1,-6 -4,-9 -2,-2 -5,-3 -8,-3 -4,0 -7,1 -9,3 -2,3 -4,5 -4,9 0,3 2,6 4,8 2,3 5,4 9,4 3,0 6,-1 8,-4 3,-2 4,-5 4,-8z"/>
  <path id="4" class="fil2" d="M269 81l-7 0 0 -17c0,-5 -1,-8 -3,-10 -1,-1 -4,-2 -8,-2l-7 0 0 29 -7 0 0 -36 14 0c6,0 10,1 13,4 4,3 5,8 5,15l0 17z"/>
 </g>
</svg>
