<?xml version="1.0" encoding="UTF-8"?>
<svg xmlns="http://www.w3.org/2000/svg" width="1650" height="512" viewBox="0 0 1650 512">
  <!-- Original Logo Group -->
  <g id="logo" transform="translate(0,0) scale(1,1)">
    <path d="M 0.00 0.00 L 512.00 0.00 L 512.00 512.00 L 0.00 512.00 L 0.00 0.00 Z" fill="transparent" opacity="1.00" stroke="transparent" stroke-width="0.25"/>
    <path d="M 428.03 68.79 C 435.36 66.30 442.71 63.88 450.09 61.53 C 458.23 58.36 468.11 66.49 466.58 75.10 C 465.77 80.94 462.56 86.08 460.43 91.50 C 429.59 164.78 399.26 238.26 368.34 311.51 C 359.13 334.39 349.10 356.93 339.84 379.79 C 335.27 390.58 330.80 401.40 326.12 412.15 C 324.88 415.23 322.79 418.08 319.80 419.66 C 316.71 420.81 312.96 420.73 310.17 418.85 C 281.72 398.41 253.40 377.76 224.70 357.68 C 213.18 369.46 201.04 380.68 189.31 392.27 C 184.74 396.74 180.24 401.29 175.42 405.48 C 172.01 408.64 166.33 409.19 162.68 406.15 C 159.37 403.78 158.58 399.51 157.88 395.78 C 156.00 384.44 153.82 373.15 151.78 361.84 C 147.98 338.50 143.09 315.36 139.13 292.06 C 117.01 279.08 95.19 265.63 73.13 252.57 C 55.64 242.09 37.98 231.90 20.57 221.30 C 17.01 219.23 14.15 215.33 15.04 211.02 C 15.66 206.70 19.72 204.15 23.49 202.79 C 51.44 193.43 79.45 184.24 107.54 175.32 C 214.44 140.00 321.31 104.63 428.03 68.79 Z" fill="#254252" opacity="1.00" stroke="#254252" stroke-width="0.25"/>
    <path d="M 415.59 109.61 C 424.19 103.19 433.12 97.17 441.24 90.13 C 434.74 107.69 427.03 124.77 420.19 142.20 C 407.83 171.65 396.11 201.37 383.88 230.87 C 373.81 254.51 364.37 278.42 354.40 302.10 C 341.18 334.57 326.93 366.63 313.92 399.18 C 313.74 399.28 313.38 399.49 313.21 399.59 C 303.82 393.51 295.01 386.59 285.87 380.15 C 246.70 352.91 207.65 325.50 168.15 298.75 C 168.26 298.26 168.48 297.28 168.60 296.79 C 180.21 287.57 192.29 278.97 203.99 269.85 C 242.95 239.39 282.79 210.08 321.90 179.81 C 340.53 165.36 359.86 151.86 378.43 137.33 C 390.88 128.18 403.02 118.61 415.59 109.61 Z" fill="#f77e6e" opacity="1.00" stroke="#f77e6e" stroke-width="0.25"/>
    <path d="M 381.72 102.83 C 390.51 100.11 399.07 96.70 407.96 94.33 C 376.02 116.54 344.68 139.59 312.60 161.61 C 301.94 169.28 291.25 176.88 280.45 184.35 C 245.11 209.33 210.19 234.90 174.98 260.06 C 167.71 265.45 160.30 270.64 153.14 276.18 C 151.89 277.13 150.26 278.53 148.66 277.39 C 118.94 259.55 88.65 242.66 58.76 225.11 C 52.64 221.92 46.94 218.01 40.80 214.85 C 72.22 204.57 103.74 194.56 135.18 184.31 C 217.29 156.94 299.80 130.77 381.72 102.83 Z" fill="#f77e6e" opacity="1.00" stroke="#f77e6e" stroke-width="0.25"/>
    <path d="M 272.17 243.18 C 278.35 240.99 284.80 245.83 285.92 251.94 C 287.03 257.94 286.66 265.36 281.56 269.53 C 277.17 273.36 269.83 272.04 266.55 267.39 C 263.56 263.22 263.56 257.71 264.32 252.84 C 264.91 248.49 268.03 244.62 272.17 243.18 Z" fill="#254252" opacity="1.00" stroke="#254252" stroke-width="0.25"/>
    <path d="M 322.48 243.65 C 328.94 240.28 336.58 245.31 337.93 251.97 C 338.94 257.63 338.70 264.21 334.66 268.71 C 330.61 273.33 322.58 272.88 318.82 268.12 C 315.41 264.26 315.40 258.74 315.92 253.91 C 316.35 249.75 318.31 245.24 322.48 243.65 Z" fill="#254252" opacity="1.00" stroke="#254252" stroke-width="0.25"/>
    <path d="M 261.42 287.54 C 263.15 287.21 265.14 287.27 266.59 288.43 C 270.33 291.20 270.90 296.49 274.75 299.20 C 286.35 309.47 305.70 309.74 317.03 298.91 C 320.45 296.09 321.04 291.22 324.27 288.27 C 328.19 285.55 334.22 287.75 336.00 292.05 C 336.78 294.68 336.30 297.59 334.98 299.97 C 328.81 310.55 318.08 318.34 306.05 320.78 C 287.07 325.55 264.82 316.71 256.02 298.85 C 253.42 294.46 256.50 288.42 261.42 287.54 Z" fill="#254252" opacity="1.00" stroke="#254252" stroke-width="0.25"/>
    <path d="M 161.01 313.29 C 176.74 325.99 193.97 336.67 210.04 348.90 C 206.75 352.32 203.37 355.65 199.92 358.92 C 191.34 366.67 183.62 375.31 175.40 383.43 C 174.57 384.08 173.65 384.61 172.76 385.17 C 169.23 361.15 164.25 337.36 161.01 313.29 Z" fill="#f77e6e" opacity="1.00" stroke="#f77e6e" stroke-width="0.25"/>
  </g>

  <!-- Text -->
  <text x="560" y="280" font-family="sans-serif" font-size="360" font-weight="bold"
        fill="#333" paint-order="fill"
        style="dominant-baseline: middle;">
    iEdon
  </text>
</svg>
